<mxfile host="65bd71144e" pages="3">
    <diagram id="ZOP575mnfubcYQVSe72Z" name="1.signup">
        <mxGraphModel dx="951" dy="548" grid="1" gridSize="50" guides="1" tooltips="1" connect="1" arrows="1" fold="1" page="1" pageScale="1" pageWidth="1169" pageHeight="827" background="light-dark(#FFFFFF,#000000)" math="0" shadow="0">
            <root>
                <mxCell id="0"/>
                <mxCell id="1" parent="0"/>
                <mxCell id="uBNZ_dndseTE9ZpxhAe4-1" value="&lt;div&gt;Signup Flow&lt;/div&gt;&amp;lt;&amp;lt;AWS Step Functions workflow&amp;gt;&amp;gt;" style="points=[[0,0],[0.25,0],[0.5,0],[0.75,0],[1,0],[1,0.25],[1,0.5],[1,0.75],[1,1],[0.75,1],[0.5,1],[0.25,1],[0,1],[0,0.75],[0,0.5],[0,0.25]];outlineConnect=0;gradientColor=none;html=1;whiteSpace=wrap;fontSize=12;fontStyle=0;container=1;pointerEvents=0;collapsible=0;recursiveResize=0;shape=mxgraph.aws4.group;grIcon=mxgraph.aws4.group_aws_step_functions_workflow;strokeColor=#CD2264;fillColor=none;verticalAlign=top;align=left;spacingLeft=30;fontColor=#CD2264;dashed=0;" parent="1" vertex="1">
                    <mxGeometry x="530" y="279" width="250" height="520" as="geometry"/>
                </mxCell>
                <mxCell id="uBNZ_dndseTE9ZpxhAe4-2" style="edgeStyle=orthogonalEdgeStyle;rounded=0;orthogonalLoop=1;jettySize=auto;html=1;" parent="uBNZ_dndseTE9ZpxhAe4-1" source="uBNZ_dndseTE9ZpxhAe4-3" target="uBNZ_dndseTE9ZpxhAe4-7" edge="1">
                    <mxGeometry relative="1" as="geometry"/>
                </mxCell>
                <mxCell id="uBNZ_dndseTE9ZpxhAe4-3" value="getter" style="sketch=0;points=[[0,0,0],[0.25,0,0],[0.5,0,0],[0.75,0,0],[1,0,0],[0,1,0],[0.25,1,0],[0.5,1,0],[0.75,1,0],[1,1,0],[0,0.25,0],[0,0.5,0],[0,0.75,0],[1,0.25,0],[1,0.5,0],[1,0.75,0]];outlineConnect=0;fontColor=#232F3E;fillColor=#ED7100;strokeColor=#ffffff;dashed=0;verticalLabelPosition=bottom;verticalAlign=top;align=center;html=1;fontSize=12;fontStyle=0;aspect=fixed;shape=mxgraph.aws4.resourceIcon;resIcon=mxgraph.aws4.lambda;" parent="uBNZ_dndseTE9ZpxhAe4-1" vertex="1">
                    <mxGeometry x="75" y="135" width="78" height="78" as="geometry"/>
                </mxCell>
                <mxCell id="uBNZ_dndseTE9ZpxhAe4-4" style="edgeStyle=orthogonalEdgeStyle;rounded=0;orthogonalLoop=1;jettySize=auto;html=1;" parent="uBNZ_dndseTE9ZpxhAe4-1" source="uBNZ_dndseTE9ZpxhAe4-5" target="uBNZ_dndseTE9ZpxhAe4-3" edge="1">
                    <mxGeometry relative="1" as="geometry"/>
                </mxCell>
                <mxCell id="uBNZ_dndseTE9ZpxhAe4-5" value="" style="ellipse;fillColor=strokeColor;html=1;" parent="uBNZ_dndseTE9ZpxhAe4-1" vertex="1">
                    <mxGeometry x="99" y="61" width="30" height="30" as="geometry"/>
                </mxCell>
                <mxCell id="uBNZ_dndseTE9ZpxhAe4-7" value="notifier" style="sketch=0;points=[[0,0,0],[0.25,0,0],[0.5,0,0],[0.75,0,0],[1,0,0],[0,1,0],[0.25,1,0],[0.5,1,0],[0.75,1,0],[1,1,0],[0,0.25,0],[0,0.5,0],[0,0.75,0],[1,0.25,0],[1,0.5,0],[1,0.75,0]];outlineConnect=0;fontColor=#232F3E;fillColor=#ED7100;strokeColor=#ffffff;dashed=0;verticalLabelPosition=bottom;verticalAlign=top;align=center;html=1;fontSize=12;fontStyle=0;aspect=fixed;shape=mxgraph.aws4.resourceIcon;resIcon=mxgraph.aws4.lambda;" parent="uBNZ_dndseTE9ZpxhAe4-1" vertex="1">
                    <mxGeometry x="75" y="381" width="78" height="78" as="geometry"/>
                </mxCell>
                <mxCell id="uBNZ_dndseTE9ZpxhAe4-11" value="Bluesky&#xa;&lt;&lt;UserAccount&gt;&gt;" style="shape=image;verticalLabelPosition=bottom;labelBackgroundColor=default;verticalAlign=top;aspect=fixed;imageAspect=0;image=data:image/png,iVBORw0KGgoAAAANSUhEUgAAAKgAAACUCAMAAAAwLZJQAAAAbFBMVEURhf7///8Agv4Afv4AgP4AfP4Aev4Ad/4Adf76/P/p8f/v9f/o7//U5P/3+v/0+P/h6/++1v+hxP5Ml/7H3P+Svf5VnP6sy/4riP59r/49kf660v+awP5inv4rjP7a5/8Acf5wqf5spP6Otv4j4A5NAAAIrElEQVR4nNWc19qyOhBGMYQuSlFAVBS5/3vcdAHTJol++38PfSQuSZtMibH7R2T8NYColqAHf/8IIz84/BnNBBL4UfjY+0uQN2h0uyPXdVy7qm9x8Hu6SUF8qyu7BXHR/RbNH0+gXlKYyOiFsGlUdfg3mGFdGSaeSMwi8dagh7tjrITdKo+ozX1JUV65eM3h3A8r0ItlbIWs6uzRG9Uv71xZ6APDvixBE/vjC51M+/azwRrcbJMIYSdv0CP5K9230vw3nHlKflfd6zrOoOfPjp8HAL7/YKhGd/zZ6ZOs8wR6KKlf6v4Q/vpLzTFmEZTeCHpifatDfX11pAYv6sgbdRpBE3rPD8LW6XucJ4v5OltZyQDqXXjfbEfq7VucN8bonN7TZQA9ZtyvttP/dfwG5vFFneyL15Qde9CgEgA1zNTXz+mnvOHZg1ZBD+pze74XLrRv/2Eh+NN+D7p3+F/t/5hx1ct5NUS6spWzH0Bdsa+3xoxW0qspyGm4QNB2odA4+W+8RfETVLDre9JEFyd38V5o7HpfZOZNss96OM8Cy9Isc5hMPuARXaQgTsPwAevo++9pGKc3SCfO62hQgkANU/mdnkGcBioD8S10KVvR7sth/T5voYcXENQwleZ+AnufLejrMFhPtdhGtnjSjOU5Y+F1fhKuvcEe5Zt5n89KG6gniR8bzTzo2O6ECsmTVFRA3+c4e3sLHw7akkp5qA4SnMOU6EBzCVADZxKW9DGDd3wLmk+gMk8b+AUHfcn90gQayzzdmgoNlLMBmD9LxSPoqZB7HrpIxTJDrFUxHZcfkqCGDTqchMAN6Q36GEH3lWQLqNqLc+5hts9C/a90oAHTpcMSvgtP/eNdaiJ16mySHtQDmk8LTd5Lvi6yHd8aT5PvaZdKgxq24HnvKs1poHQ3gULtvFUzQrv+SeUXshkUbD4thCsR0ErlF+oZtFFoxjAFdiiuY5EJ2sygOeDoSmiIa0YnKi9iPKL3oAoj3ejM6Aeb8wE2lVey4xk0lNyDJ9KKuZoepVf6QW44gwKcOkRhpnmiNAOMwaEzgnpPtaYMh3EuzdW6yzCe3htUaYx2MqnhiEBlwvey36A7xVHUDtM7JRrp3ZWbHhbqAVRlaxpEW6NkzmMb0GwBqrI1jbKJLn5faYXuNWxMI2ij/L9b04HQ+Z6CuTPJbBagEK8qTaTOV9uSBlmL6PIuVp72rcyPg0mo3lHTxjSCnnS0iNMtaKrhhU7eowE0lD3erbR18qnP+E5jeGsAjaRPTUttHFIybiaCymgB6muYncbWNFUyQmehMbQ5gKrvH4OeC5dE/NTS5LTnjVk6YKczpdV0NviOejrJQGMvjaCqptikd2gPEJhjajIhR1ApzyNJ5riTgqJszAbzFehJ0/+fnZFyDkaCpiyRETRQtW5nDeuzhKeeIidYge507KG9cBdrOWh7oYa9W4NqmvatnHaJirV10DTpZ1Dlk8276WK307MndXKuG9BIy27fy8y1rSHtTh9tQOHhO6pQKe/G3KoP2q1Ad1dtjYumtAg1NXs13znOyifRLwi9XYVv0ETbdNInJyGAHvSNLF1C5YEAKhnA+6aWmavLggF924kejSf6T1CfnyH5SyEcUEB38f/qleJVBHNd1EJJc/8TbVJsNtU38mEr3dqG2rZlQo0uC1pR1taJvQX1zopucj1yP6o/PguvroJpsl8ULj4Dl4QKsQe9GuI3slNCPIhUynZI2JUG3xXGN1I0iFxzF12QPtsXJBNdyBlVtOLAR+2oxdtkhEynpkUBGVWMyb2wfzgEsF3cGVFVVrmlF+Y1ftoYffnVIoTtJ67zkFWQxq0L9fMmK8uq6A9/RZWWVVUpHgSLtokyHVopiqossybnlk2IFbAGUXhqFYZ5U2eyOT0LVVnd5OHQZiRWgwSotPXiuiyQnnHQNlOUdQwoPhQFjfKX42geq8h2XsI1nWKg4avklkdJCVvli5OWIA4aXAv3i/MeucVVYJjyQZPU/vbyZKf87G4e6Kn8xQaFzJKXPsUGDRrdE4iK6jTs/meCPspfbqElc1axQPNvD861ELNiggEKqzzRIVa9DB309geHJ5dOSgW9/onlTK/qo4Hufzs+JyGbloxMAdWRDCJHSkpNYYBqDBcAZVKmPhkUWjSmUX05mDDo6Q/d5A55MyWDqmWWqdnWY+aYGKjSzokytf+JxUEfSlMJX69Kf5Sc4EsEjdVSfQ8HJecVJtbKEEFzFdBujCn1PfkWDyKoUkqdchicnOGp/Y2iot0E9ypxcMAbVUm0GLJqVLJ+yKWcRNBI4WdQPxVUpiMmHvW1r6NjPFjB74OISGRQ+SyDqVRcoih21CqwyAM9SVv3zpSgJT3vXcheL209mXMY6yL5SmHWk3TPoXlXkZ1OtGsGKKC+nK8WZbN97knuTgXFpUs7MwFvkxi1rBmRy6Si3oVBAz3I5cKsmpYQqmhF5tTjskzs3lptfjJ1Z2TLiQm6q8HzCZWr8SWROG3WVByGSwfc+dsDJPgoixgVkQzQEHj2+fwZ4F9FiFG0zfLmAatOP2vDgfXfzFpYpn8UdPOJSShjBm1P7Hta2B5niOeRdM8GJNmTc0cPx4cvnrDnEP1wV/HnOfEGXrBBdIeiFQaL1mFwb2fihm/E1pjNEvqWL2aH0VxjANB2gxH4qSc1UPB4CvxNi3/fkUDk7sRP22Fd/8Z3XeNCoEZfJBb64N0XaDMn7I0zzE1SUo4U6O5YM7vf5tys0rBIkVULXXghGAZPGN3Pv6SMsRzjQvCSK9F4vZ9Sgo3oKXBdxfVJedgRvtpSPAMiJkaZ7Uwo3P7ICN2P7FT8khtAqkaQFFtU0zoL3qhyvFnmFrNIAFfaAkBb5VmxuF8bV5yI8EpBU+HFLeFFBrsrDgbaWm75JUVuK5ReRBIXlgqul2x6NodeZgoF7X7P30fR3pe6ivY4PCtxi7EE6N/onwH9D7u/bvll51igAAAAAElFTkSuQmCC;" parent="1" vertex="1">
                    <mxGeometry x="139.19" y="660" width="90.81" height="80" as="geometry"/>
                </mxCell>
                <mxCell id="uBNZ_dndseTE9ZpxhAe4-13" value="Bluesky&#xa;&lt;&lt;BotAccount&gt;&gt;" style="shape=image;verticalLabelPosition=bottom;labelBackgroundColor=default;verticalAlign=top;aspect=fixed;imageAspect=0;image=data:image/png,iVBORw0KGgoAAAANSUhEUgAAAKgAAACUCAMAAAAwLZJQAAAAbFBMVEURhf7///8Agv4Afv4AgP4AfP4Aev4Ad/4Adf76/P/p8f/v9f/o7//U5P/3+v/0+P/h6/++1v+hxP5Ml/7H3P+Svf5VnP6sy/4riP59r/49kf660v+awP5inv4rjP7a5/8Acf5wqf5spP6Otv4j4A5NAAAIrElEQVR4nNWc19qyOhBGMYQuSlFAVBS5/3vcdAHTJol++38PfSQuSZtMibH7R2T8NYColqAHf/8IIz84/BnNBBL4UfjY+0uQN2h0uyPXdVy7qm9x8Hu6SUF8qyu7BXHR/RbNH0+gXlKYyOiFsGlUdfg3mGFdGSaeSMwi8dagh7tjrITdKo+ozX1JUV65eM3h3A8r0ItlbIWs6uzRG9Uv71xZ6APDvixBE/vjC51M+/azwRrcbJMIYSdv0CP5K9230vw3nHlKflfd6zrOoOfPjp8HAL7/YKhGd/zZ6ZOs8wR6KKlf6v4Q/vpLzTFmEZTeCHpifatDfX11pAYv6sgbdRpBE3rPD8LW6XucJ4v5OltZyQDqXXjfbEfq7VucN8bonN7TZQA9ZtyvttP/dfwG5vFFneyL15Qde9CgEgA1zNTXz+mnvOHZg1ZBD+pze74XLrRv/2Eh+NN+D7p3+F/t/5hx1ct5NUS6spWzH0Bdsa+3xoxW0qspyGm4QNB2odA4+W+8RfETVLDre9JEFyd38V5o7HpfZOZNss96OM8Cy9Isc5hMPuARXaQgTsPwAevo++9pGKc3SCfO62hQgkANU/mdnkGcBioD8S10KVvR7sth/T5voYcXENQwleZ+AnufLejrMFhPtdhGtnjSjOU5Y+F1fhKuvcEe5Zt5n89KG6gniR8bzTzo2O6ECsmTVFRA3+c4e3sLHw7akkp5qA4SnMOU6EBzCVADZxKW9DGDd3wLmk+gMk8b+AUHfcn90gQayzzdmgoNlLMBmD9LxSPoqZB7HrpIxTJDrFUxHZcfkqCGDTqchMAN6Q36GEH3lWQLqNqLc+5hts9C/a90oAHTpcMSvgtP/eNdaiJ16mySHtQDmk8LTd5Lvi6yHd8aT5PvaZdKgxq24HnvKs1poHQ3gULtvFUzQrv+SeUXshkUbD4thCsR0ErlF+oZtFFoxjAFdiiuY5EJ2sygOeDoSmiIa0YnKi9iPKL3oAoj3ejM6Aeb8wE2lVey4xk0lNyDJ9KKuZoepVf6QW44gwKcOkRhpnmiNAOMwaEzgnpPtaYMh3EuzdW6yzCe3htUaYx2MqnhiEBlwvey36A7xVHUDtM7JRrp3ZWbHhbqAVRlaxpEW6NkzmMb0GwBqrI1jbKJLn5faYXuNWxMI2ij/L9b04HQ+Z6CuTPJbBagEK8qTaTOV9uSBlmL6PIuVp72rcyPg0mo3lHTxjSCnnS0iNMtaKrhhU7eowE0lD3erbR18qnP+E5jeGsAjaRPTUttHFIybiaCymgB6muYncbWNFUyQmehMbQ5gKrvH4OeC5dE/NTS5LTnjVk6YKczpdV0NviOejrJQGMvjaCqptikd2gPEJhjajIhR1ApzyNJ5riTgqJszAbzFehJ0/+fnZFyDkaCpiyRETRQtW5nDeuzhKeeIidYge507KG9cBdrOWh7oYa9W4NqmvatnHaJirV10DTpZ1Dlk8276WK307MndXKuG9BIy27fy8y1rSHtTh9tQOHhO6pQKe/G3KoP2q1Ad1dtjYumtAg1NXs13znOyifRLwi9XYVv0ETbdNInJyGAHvSNLF1C5YEAKhnA+6aWmavLggF924kejSf6T1CfnyH5SyEcUEB38f/qleJVBHNd1EJJc/8TbVJsNtU38mEr3dqG2rZlQo0uC1pR1taJvQX1zopucj1yP6o/PguvroJpsl8ULj4Dl4QKsQe9GuI3slNCPIhUynZI2JUG3xXGN1I0iFxzF12QPtsXJBNdyBlVtOLAR+2oxdtkhEynpkUBGVWMyb2wfzgEsF3cGVFVVrmlF+Y1ftoYffnVIoTtJ67zkFWQxq0L9fMmK8uq6A9/RZWWVVUpHgSLtokyHVopiqossybnlk2IFbAGUXhqFYZ5U2eyOT0LVVnd5OHQZiRWgwSotPXiuiyQnnHQNlOUdQwoPhQFjfKX42geq8h2XsI1nWKg4avklkdJCVvli5OWIA4aXAv3i/MeucVVYJjyQZPU/vbyZKf87G4e6Kn8xQaFzJKXPsUGDRrdE4iK6jTs/meCPspfbqElc1axQPNvD861ELNiggEKqzzRIVa9DB309geHJ5dOSgW9/onlTK/qo4Hufzs+JyGbloxMAdWRDCJHSkpNYYBqDBcAZVKmPhkUWjSmUX05mDDo6Q/d5A55MyWDqmWWqdnWY+aYGKjSzokytf+JxUEfSlMJX69Kf5Sc4EsEjdVSfQ8HJecVJtbKEEFzFdBujCn1PfkWDyKoUkqdchicnOGp/Y2iot0E9ypxcMAbVUm0GLJqVLJ+yKWcRNBI4WdQPxVUpiMmHvW1r6NjPFjB74OISGRQ+SyDqVRcoih21CqwyAM9SVv3zpSgJT3vXcheL209mXMY6yL5SmHWk3TPoXlXkZ1OtGsGKKC+nK8WZbN97knuTgXFpUs7MwFvkxi1rBmRy6Si3oVBAz3I5cKsmpYQqmhF5tTjskzs3lptfjJ1Z2TLiQm6q8HzCZWr8SWROG3WVByGSwfc+dsDJPgoixgVkQzQEHj2+fwZ4F9FiFG0zfLmAatOP2vDgfXfzFpYpn8UdPOJSShjBm1P7Hta2B5niOeRdM8GJNmTc0cPx4cvnrDnEP1wV/HnOfEGXrBBdIeiFQaL1mFwb2fihm/E1pjNEvqWL2aH0VxjANB2gxH4qSc1UPB4CvxNi3/fkUDk7sRP22Fd/8Z3XeNCoEZfJBb64N0XaDMn7I0zzE1SUo4U6O5YM7vf5tys0rBIkVULXXghGAZPGN3Pv6SMsRzjQvCSK9F4vZ9Sgo3oKXBdxfVJedgRvtpSPAMiJkaZ7Uwo3P7ICN2P7FT8khtAqkaQFFtU0zoL3qhyvFnmFrNIAFfaAkBb5VmxuF8bV5yI8EpBU+HFLeFFBrsrDgbaWm75JUVuK5ReRBIXlgqul2x6NodeZgoF7X7P30fR3pe6ivY4PCtxi7EE6N/onwH9D7u/bvll51igAAAAAElFTkSuQmCC;" parent="1" vertex="1">
                    <mxGeometry x="139.19" y="414" width="90.81" height="80" as="geometry"/>
                </mxCell>
                <mxCell id="uBNZ_dndseTE9ZpxhAe4-15" value="App Password&lt;div&gt;&amp;lt;&amp;lt;S3&amp;gt;&amp;gt;&lt;/div&gt;" style="sketch=0;outlineConnect=0;fontColor=#232F3E;gradientColor=none;fillColor=#7AA116;strokeColor=none;dashed=0;verticalLabelPosition=bottom;verticalAlign=top;align=center;html=1;fontSize=12;fontStyle=0;aspect=fixed;pointerEvents=1;shape=mxgraph.aws4.bucket;" parent="1" vertex="1">
                    <mxGeometry x="940" y="414" width="75" height="78" as="geometry"/>
                </mxCell>
                <mxCell id="uBNZ_dndseTE9ZpxhAe4-17" style="edgeStyle=orthogonalEdgeStyle;rounded=0;orthogonalLoop=1;jettySize=auto;html=1;" parent="1" source="uBNZ_dndseTE9ZpxhAe4-18" target="uBNZ_dndseTE9ZpxhAe4-22" edge="1">
                    <mxGeometry relative="1" as="geometry"/>
                </mxCell>
                <mxCell id="uBNZ_dndseTE9ZpxhAe4-18" value="&lt;div&gt;cron&lt;/div&gt;&amp;lt;&amp;lt;Event Bridge Rules&amp;gt;&amp;gt;" style="sketch=0;outlineConnect=0;fontColor=#232F3E;gradientColor=none;fillColor=#E7157B;strokeColor=none;dashed=0;verticalLabelPosition=bottom;verticalAlign=top;align=center;html=1;fontSize=12;fontStyle=0;aspect=fixed;pointerEvents=1;shape=mxgraph.aws4.event_time_based;" parent="1" vertex="1">
                    <mxGeometry x="370" y="90" width="78" height="78" as="geometry"/>
                </mxCell>
                <mxCell id="uBNZ_dndseTE9ZpxhAe4-19" value="" style="rounded=0;orthogonalLoop=1;jettySize=auto;html=1;exitX=0;exitY=0.5;exitDx=0;exitDy=0;exitPerimeter=0;" parent="1" source="uBNZ_dndseTE9ZpxhAe4-3" target="uBNZ_dndseTE9ZpxhAe4-13" edge="1">
                    <mxGeometry relative="1" as="geometry">
                        <mxPoint x="370" y="579" as="sourcePoint"/>
                    </mxGeometry>
                </mxCell>
                <mxCell id="uBNZ_dndseTE9ZpxhAe4-20" value="Get App Password in the DM&lt;div&gt;and remove DM&lt;/div&gt;" style="edgeLabel;html=1;align=center;verticalAlign=middle;resizable=0;points=[];" parent="uBNZ_dndseTE9ZpxhAe4-19" connectable="0" vertex="1">
                    <mxGeometry x="-0.1558" relative="1" as="geometry">
                        <mxPoint as="offset"/>
                    </mxGeometry>
                </mxCell>
                <mxCell id="uBNZ_dndseTE9ZpxhAe4-21" value="execute task" style="rounded=0;orthogonalLoop=1;jettySize=auto;html=1;entryX=0;entryY=0.5;entryDx=0;entryDy=0;" parent="1" source="uBNZ_dndseTE9ZpxhAe4-22" target="uBNZ_dndseTE9ZpxhAe4-5" edge="1">
                    <mxGeometry relative="1" as="geometry"/>
                </mxCell>
                <mxCell id="uBNZ_dndseTE9ZpxhAe4-22" value="executor" style="sketch=0;points=[[0,0,0],[0.25,0,0],[0.5,0,0],[0.75,0,0],[1,0,0],[0,1,0],[0.25,1,0],[0.5,1,0],[0.75,1,0],[1,1,0],[0,0.25,0],[0,0.5,0],[0,0.75,0],[1,0.25,0],[1,0.5,0],[1,0.75,0]];outlineConnect=0;fontColor=#232F3E;fillColor=#ED7100;strokeColor=#ffffff;dashed=0;verticalLabelPosition=bottom;verticalAlign=top;align=center;html=1;fontSize=12;fontStyle=0;aspect=fixed;shape=mxgraph.aws4.resourceIcon;resIcon=mxgraph.aws4.lambda;" parent="1" vertex="1">
                    <mxGeometry x="370" y="290" width="78" height="78" as="geometry"/>
                </mxCell>
                <mxCell id="uBNZ_dndseTE9ZpxhAe4-23" style="edgeStyle=orthogonalEdgeStyle;rounded=0;orthogonalLoop=1;jettySize=auto;html=1;" parent="1" source="uBNZ_dndseTE9ZpxhAe4-3" target="uBNZ_dndseTE9ZpxhAe4-15" edge="1">
                    <mxGeometry relative="1" as="geometry"/>
                </mxCell>
                <mxCell id="uBNZ_dndseTE9ZpxhAe4-24" value="Puts encrypted App Password file&lt;div&gt;&lt;div&gt;named with user DID&lt;/div&gt;&lt;/div&gt;" style="edgeLabel;html=1;align=center;verticalAlign=middle;resizable=0;points=[];" parent="uBNZ_dndseTE9ZpxhAe4-23" connectable="0" vertex="1">
                    <mxGeometry x="-0.0802" y="-1" relative="1" as="geometry">
                        <mxPoint as="offset"/>
                    </mxGeometry>
                </mxCell>
                <mxCell id="dxRzABdcPIoRXtoEi9l3-1" value="User registration flow by having users send their App Password via DM" style="text;html=1;align=center;verticalAlign=middle;resizable=0;points=[];autosize=1;" parent="1" vertex="1">
                    <mxGeometry x="20" y="18" width="400" height="30" as="geometry"/>
                </mxCell>
                <mxCell id="JNdiRJFghMoZANa3wjUw-1" value="Send registration succeeded message&lt;div&gt;via&amp;nbsp;&lt;span style=&quot;background-color: light-dark(#ffffff, var(--ge-dark-color, #121212)); color: light-dark(rgb(0, 0, 0), rgb(255, 255, 255));&quot;&gt;DM from Bot Account&lt;/span&gt;&lt;/div&gt;" style="rounded=0;orthogonalLoop=1;jettySize=auto;html=1;" parent="1" source="uBNZ_dndseTE9ZpxhAe4-7" target="uBNZ_dndseTE9ZpxhAe4-11" edge="1">
                    <mxGeometry relative="1" as="geometry"/>
                </mxCell>
                <mxCell id="uBNZ_dndseTE9ZpxhAe4-9" style="rounded=0;orthogonalLoop=1;jettySize=auto;html=1;" parent="1" source="uBNZ_dndseTE9ZpxhAe4-11" target="uBNZ_dndseTE9ZpxhAe4-13" edge="1">
                    <mxGeometry relative="1" as="geometry"/>
                </mxCell>
                <mxCell id="uBNZ_dndseTE9ZpxhAe4-10" value="Send App Password with &quot;signup&quot; message via DM" style="edgeLabel;html=1;align=center;verticalAlign=middle;resizable=0;points=[];" parent="uBNZ_dndseTE9ZpxhAe4-9" connectable="0" vertex="1">
                    <mxGeometry x="0.2065" y="-2" relative="1" as="geometry">
                        <mxPoint x="13" y="31" as="offset"/>
                    </mxGeometry>
                </mxCell>
            </root>
        </mxGraphModel>
    </diagram>
    <diagram name="2.signout" id="UYcU-Ny3zDGwWWyPPZYb">
        <mxGraphModel dx="1141" dy="657" grid="1" gridSize="10" guides="1" tooltips="1" connect="1" arrows="1" fold="1" page="1" pageScale="1" pageWidth="1169" pageHeight="827" math="0" shadow="0">
            <root>
                <mxCell id="p784MecrXyW4b-BCH8He-0"/>
                <mxCell id="p784MecrXyW4b-BCH8He-1" parent="p784MecrXyW4b-BCH8He-0"/>
                <mxCell id="p784MecrXyW4b-BCH8He-2" value="&lt;div&gt;Signout Flow&lt;/div&gt;&amp;lt;&amp;lt;AWS Step Functions workflow&amp;gt;&amp;gt;" style="points=[[0,0],[0.25,0],[0.5,0],[0.75,0],[1,0],[1,0.25],[1,0.5],[1,0.75],[1,1],[0.75,1],[0.5,1],[0.25,1],[0,1],[0,0.75],[0,0.5],[0,0.25]];outlineConnect=0;gradientColor=none;html=1;whiteSpace=wrap;fontSize=12;fontStyle=0;container=1;pointerEvents=0;collapsible=0;recursiveResize=0;shape=mxgraph.aws4.group;grIcon=mxgraph.aws4.group_aws_step_functions_workflow;strokeColor=#CD2264;fillColor=none;verticalAlign=top;align=left;spacingLeft=30;fontColor=#CD2264;dashed=0;" parent="p784MecrXyW4b-BCH8He-1" vertex="1">
                    <mxGeometry x="530" y="279" width="250" height="520" as="geometry"/>
                </mxCell>
                <mxCell id="p784MecrXyW4b-BCH8He-3" style="edgeStyle=orthogonalEdgeStyle;rounded=0;orthogonalLoop=1;jettySize=auto;html=1;" parent="p784MecrXyW4b-BCH8He-2" source="p784MecrXyW4b-BCH8He-4" target="p784MecrXyW4b-BCH8He-7" edge="1">
                    <mxGeometry relative="1" as="geometry"/>
                </mxCell>
                <mxCell id="p784MecrXyW4b-BCH8He-4" value="getter" style="sketch=0;points=[[0,0,0],[0.25,0,0],[0.5,0,0],[0.75,0,0],[1,0,0],[0,1,0],[0.25,1,0],[0.5,1,0],[0.75,1,0],[1,1,0],[0,0.25,0],[0,0.5,0],[0,0.75,0],[1,0.25,0],[1,0.5,0],[1,0.75,0]];outlineConnect=0;fontColor=#232F3E;fillColor=#ED7100;strokeColor=#ffffff;dashed=0;verticalLabelPosition=bottom;verticalAlign=top;align=center;html=1;fontSize=12;fontStyle=0;aspect=fixed;shape=mxgraph.aws4.resourceIcon;resIcon=mxgraph.aws4.lambda;" parent="p784MecrXyW4b-BCH8He-2" vertex="1">
                    <mxGeometry x="75" y="135" width="78" height="78" as="geometry"/>
                </mxCell>
                <mxCell id="p784MecrXyW4b-BCH8He-5" style="edgeStyle=orthogonalEdgeStyle;rounded=0;orthogonalLoop=1;jettySize=auto;html=1;" parent="p784MecrXyW4b-BCH8He-2" source="p784MecrXyW4b-BCH8He-6" target="p784MecrXyW4b-BCH8He-4" edge="1">
                    <mxGeometry relative="1" as="geometry"/>
                </mxCell>
                <mxCell id="p784MecrXyW4b-BCH8He-6" value="" style="ellipse;fillColor=strokeColor;html=1;" parent="p784MecrXyW4b-BCH8He-2" vertex="1">
                    <mxGeometry x="99" y="61" width="30" height="30" as="geometry"/>
                </mxCell>
                <mxCell id="p784MecrXyW4b-BCH8He-7" value="notifier" style="sketch=0;points=[[0,0,0],[0.25,0,0],[0.5,0,0],[0.75,0,0],[1,0,0],[0,1,0],[0.25,1,0],[0.5,1,0],[0.75,1,0],[1,1,0],[0,0.25,0],[0,0.5,0],[0,0.75,0],[1,0.25,0],[1,0.5,0],[1,0.75,0]];outlineConnect=0;fontColor=#232F3E;fillColor=#ED7100;strokeColor=#ffffff;dashed=0;verticalLabelPosition=bottom;verticalAlign=top;align=center;html=1;fontSize=12;fontStyle=0;aspect=fixed;shape=mxgraph.aws4.resourceIcon;resIcon=mxgraph.aws4.lambda;" parent="p784MecrXyW4b-BCH8He-2" vertex="1">
                    <mxGeometry x="75" y="381" width="78" height="78" as="geometry"/>
                </mxCell>
                <mxCell id="p784MecrXyW4b-BCH8He-8" value="Bluesky&#xa;&lt;&lt;UserAccount&gt;&gt;" style="shape=image;verticalLabelPosition=bottom;labelBackgroundColor=default;verticalAlign=top;aspect=fixed;imageAspect=0;image=data:image/png,iVBORw0KGgoAAAANSUhEUgAAAKgAAACUCAMAAAAwLZJQAAAAbFBMVEURhf7///8Agv4Afv4AgP4AfP4Aev4Ad/4Adf76/P/p8f/v9f/o7//U5P/3+v/0+P/h6/++1v+hxP5Ml/7H3P+Svf5VnP6sy/4riP59r/49kf660v+awP5inv4rjP7a5/8Acf5wqf5spP6Otv4j4A5NAAAIrElEQVR4nNWc19qyOhBGMYQuSlFAVBS5/3vcdAHTJol++38PfSQuSZtMibH7R2T8NYColqAHf/8IIz84/BnNBBL4UfjY+0uQN2h0uyPXdVy7qm9x8Hu6SUF8qyu7BXHR/RbNH0+gXlKYyOiFsGlUdfg3mGFdGSaeSMwi8dagh7tjrITdKo+ozX1JUV65eM3h3A8r0ItlbIWs6uzRG9Uv71xZ6APDvixBE/vjC51M+/azwRrcbJMIYSdv0CP5K9230vw3nHlKflfd6zrOoOfPjp8HAL7/YKhGd/zZ6ZOs8wR6KKlf6v4Q/vpLzTFmEZTeCHpifatDfX11pAYv6sgbdRpBE3rPD8LW6XucJ4v5OltZyQDqXXjfbEfq7VucN8bonN7TZQA9ZtyvttP/dfwG5vFFneyL15Qde9CgEgA1zNTXz+mnvOHZg1ZBD+pze74XLrRv/2Eh+NN+D7p3+F/t/5hx1ct5NUS6spWzH0Bdsa+3xoxW0qspyGm4QNB2odA4+W+8RfETVLDre9JEFyd38V5o7HpfZOZNss96OM8Cy9Isc5hMPuARXaQgTsPwAevo++9pGKc3SCfO62hQgkANU/mdnkGcBioD8S10KVvR7sth/T5voYcXENQwleZ+AnufLejrMFhPtdhGtnjSjOU5Y+F1fhKuvcEe5Zt5n89KG6gniR8bzTzo2O6ECsmTVFRA3+c4e3sLHw7akkp5qA4SnMOU6EBzCVADZxKW9DGDd3wLmk+gMk8b+AUHfcn90gQayzzdmgoNlLMBmD9LxSPoqZB7HrpIxTJDrFUxHZcfkqCGDTqchMAN6Q36GEH3lWQLqNqLc+5hts9C/a90oAHTpcMSvgtP/eNdaiJ16mySHtQDmk8LTd5Lvi6yHd8aT5PvaZdKgxq24HnvKs1poHQ3gULtvFUzQrv+SeUXshkUbD4thCsR0ErlF+oZtFFoxjAFdiiuY5EJ2sygOeDoSmiIa0YnKi9iPKL3oAoj3ejM6Aeb8wE2lVey4xk0lNyDJ9KKuZoepVf6QW44gwKcOkRhpnmiNAOMwaEzgnpPtaYMh3EuzdW6yzCe3htUaYx2MqnhiEBlwvey36A7xVHUDtM7JRrp3ZWbHhbqAVRlaxpEW6NkzmMb0GwBqrI1jbKJLn5faYXuNWxMI2ij/L9b04HQ+Z6CuTPJbBagEK8qTaTOV9uSBlmL6PIuVp72rcyPg0mo3lHTxjSCnnS0iNMtaKrhhU7eowE0lD3erbR18qnP+E5jeGsAjaRPTUttHFIybiaCymgB6muYncbWNFUyQmehMbQ5gKrvH4OeC5dE/NTS5LTnjVk6YKczpdV0NviOejrJQGMvjaCqptikd2gPEJhjajIhR1ApzyNJ5riTgqJszAbzFehJ0/+fnZFyDkaCpiyRETRQtW5nDeuzhKeeIidYge507KG9cBdrOWh7oYa9W4NqmvatnHaJirV10DTpZ1Dlk8276WK307MndXKuG9BIy27fy8y1rSHtTh9tQOHhO6pQKe/G3KoP2q1Ad1dtjYumtAg1NXs13znOyifRLwi9XYVv0ETbdNInJyGAHvSNLF1C5YEAKhnA+6aWmavLggF924kejSf6T1CfnyH5SyEcUEB38f/qleJVBHNd1EJJc/8TbVJsNtU38mEr3dqG2rZlQo0uC1pR1taJvQX1zopucj1yP6o/PguvroJpsl8ULj4Dl4QKsQe9GuI3slNCPIhUynZI2JUG3xXGN1I0iFxzF12QPtsXJBNdyBlVtOLAR+2oxdtkhEynpkUBGVWMyb2wfzgEsF3cGVFVVrmlF+Y1ftoYffnVIoTtJ67zkFWQxq0L9fMmK8uq6A9/RZWWVVUpHgSLtokyHVopiqossybnlk2IFbAGUXhqFYZ5U2eyOT0LVVnd5OHQZiRWgwSotPXiuiyQnnHQNlOUdQwoPhQFjfKX42geq8h2XsI1nWKg4avklkdJCVvli5OWIA4aXAv3i/MeucVVYJjyQZPU/vbyZKf87G4e6Kn8xQaFzJKXPsUGDRrdE4iK6jTs/meCPspfbqElc1axQPNvD861ELNiggEKqzzRIVa9DB309geHJ5dOSgW9/onlTK/qo4Hufzs+JyGbloxMAdWRDCJHSkpNYYBqDBcAZVKmPhkUWjSmUX05mDDo6Q/d5A55MyWDqmWWqdnWY+aYGKjSzokytf+JxUEfSlMJX69Kf5Sc4EsEjdVSfQ8HJecVJtbKEEFzFdBujCn1PfkWDyKoUkqdchicnOGp/Y2iot0E9ypxcMAbVUm0GLJqVLJ+yKWcRNBI4WdQPxVUpiMmHvW1r6NjPFjB74OISGRQ+SyDqVRcoih21CqwyAM9SVv3zpSgJT3vXcheL209mXMY6yL5SmHWk3TPoXlXkZ1OtGsGKKC+nK8WZbN97knuTgXFpUs7MwFvkxi1rBmRy6Si3oVBAz3I5cKsmpYQqmhF5tTjskzs3lptfjJ1Z2TLiQm6q8HzCZWr8SWROG3WVByGSwfc+dsDJPgoixgVkQzQEHj2+fwZ4F9FiFG0zfLmAatOP2vDgfXfzFpYpn8UdPOJSShjBm1P7Hta2B5niOeRdM8GJNmTc0cPx4cvnrDnEP1wV/HnOfEGXrBBdIeiFQaL1mFwb2fihm/E1pjNEvqWL2aH0VxjANB2gxH4qSc1UPB4CvxNi3/fkUDk7sRP22Fd/8Z3XeNCoEZfJBb64N0XaDMn7I0zzE1SUo4U6O5YM7vf5tys0rBIkVULXXghGAZPGN3Pv6SMsRzjQvCSK9F4vZ9Sgo3oKXBdxfVJedgRvtpSPAMiJkaZ7Uwo3P7ICN2P7FT8khtAqkaQFFtU0zoL3qhyvFnmFrNIAFfaAkBb5VmxuF8bV5yI8EpBU+HFLeFFBrsrDgbaWm75JUVuK5ReRBIXlgqul2x6NodeZgoF7X7P30fR3pe6ivY4PCtxi7EE6N/onwH9D7u/bvll51igAAAAAElFTkSuQmCC;" parent="p784MecrXyW4b-BCH8He-1" vertex="1">
                    <mxGeometry x="139.19" y="660" width="90.81" height="80" as="geometry"/>
                </mxCell>
                <mxCell id="p784MecrXyW4b-BCH8He-9" value="Bluesky&#xa;&lt;&lt;BotAccount&gt;&gt;" style="shape=image;verticalLabelPosition=bottom;labelBackgroundColor=default;verticalAlign=top;aspect=fixed;imageAspect=0;image=data:image/png,iVBORw0KGgoAAAANSUhEUgAAAKgAAACUCAMAAAAwLZJQAAAAbFBMVEURhf7///8Agv4Afv4AgP4AfP4Aev4Ad/4Adf76/P/p8f/v9f/o7//U5P/3+v/0+P/h6/++1v+hxP5Ml/7H3P+Svf5VnP6sy/4riP59r/49kf660v+awP5inv4rjP7a5/8Acf5wqf5spP6Otv4j4A5NAAAIrElEQVR4nNWc19qyOhBGMYQuSlFAVBS5/3vcdAHTJol++38PfSQuSZtMibH7R2T8NYColqAHf/8IIz84/BnNBBL4UfjY+0uQN2h0uyPXdVy7qm9x8Hu6SUF8qyu7BXHR/RbNH0+gXlKYyOiFsGlUdfg3mGFdGSaeSMwi8dagh7tjrITdKo+ozX1JUV65eM3h3A8r0ItlbIWs6uzRG9Uv71xZ6APDvixBE/vjC51M+/azwRrcbJMIYSdv0CP5K9230vw3nHlKflfd6zrOoOfPjp8HAL7/YKhGd/zZ6ZOs8wR6KKlf6v4Q/vpLzTFmEZTeCHpifatDfX11pAYv6sgbdRpBE3rPD8LW6XucJ4v5OltZyQDqXXjfbEfq7VucN8bonN7TZQA9ZtyvttP/dfwG5vFFneyL15Qde9CgEgA1zNTXz+mnvOHZg1ZBD+pze74XLrRv/2Eh+NN+D7p3+F/t/5hx1ct5NUS6spWzH0Bdsa+3xoxW0qspyGm4QNB2odA4+W+8RfETVLDre9JEFyd38V5o7HpfZOZNss96OM8Cy9Isc5hMPuARXaQgTsPwAevo++9pGKc3SCfO62hQgkANU/mdnkGcBioD8S10KVvR7sth/T5voYcXENQwleZ+AnufLejrMFhPtdhGtnjSjOU5Y+F1fhKuvcEe5Zt5n89KG6gniR8bzTzo2O6ECsmTVFRA3+c4e3sLHw7akkp5qA4SnMOU6EBzCVADZxKW9DGDd3wLmk+gMk8b+AUHfcn90gQayzzdmgoNlLMBmD9LxSPoqZB7HrpIxTJDrFUxHZcfkqCGDTqchMAN6Q36GEH3lWQLqNqLc+5hts9C/a90oAHTpcMSvgtP/eNdaiJ16mySHtQDmk8LTd5Lvi6yHd8aT5PvaZdKgxq24HnvKs1poHQ3gULtvFUzQrv+SeUXshkUbD4thCsR0ErlF+oZtFFoxjAFdiiuY5EJ2sygOeDoSmiIa0YnKi9iPKL3oAoj3ejM6Aeb8wE2lVey4xk0lNyDJ9KKuZoepVf6QW44gwKcOkRhpnmiNAOMwaEzgnpPtaYMh3EuzdW6yzCe3htUaYx2MqnhiEBlwvey36A7xVHUDtM7JRrp3ZWbHhbqAVRlaxpEW6NkzmMb0GwBqrI1jbKJLn5faYXuNWxMI2ij/L9b04HQ+Z6CuTPJbBagEK8qTaTOV9uSBlmL6PIuVp72rcyPg0mo3lHTxjSCnnS0iNMtaKrhhU7eowE0lD3erbR18qnP+E5jeGsAjaRPTUttHFIybiaCymgB6muYncbWNFUyQmehMbQ5gKrvH4OeC5dE/NTS5LTnjVk6YKczpdV0NviOejrJQGMvjaCqptikd2gPEJhjajIhR1ApzyNJ5riTgqJszAbzFehJ0/+fnZFyDkaCpiyRETRQtW5nDeuzhKeeIidYge507KG9cBdrOWh7oYa9W4NqmvatnHaJirV10DTpZ1Dlk8276WK307MndXKuG9BIy27fy8y1rSHtTh9tQOHhO6pQKe/G3KoP2q1Ad1dtjYumtAg1NXs13znOyifRLwi9XYVv0ETbdNInJyGAHvSNLF1C5YEAKhnA+6aWmavLggF924kejSf6T1CfnyH5SyEcUEB38f/qleJVBHNd1EJJc/8TbVJsNtU38mEr3dqG2rZlQo0uC1pR1taJvQX1zopucj1yP6o/PguvroJpsl8ULj4Dl4QKsQe9GuI3slNCPIhUynZI2JUG3xXGN1I0iFxzF12QPtsXJBNdyBlVtOLAR+2oxdtkhEynpkUBGVWMyb2wfzgEsF3cGVFVVrmlF+Y1ftoYffnVIoTtJ67zkFWQxq0L9fMmK8uq6A9/RZWWVVUpHgSLtokyHVopiqossybnlk2IFbAGUXhqFYZ5U2eyOT0LVVnd5OHQZiRWgwSotPXiuiyQnnHQNlOUdQwoPhQFjfKX42geq8h2XsI1nWKg4avklkdJCVvli5OWIA4aXAv3i/MeucVVYJjyQZPU/vbyZKf87G4e6Kn8xQaFzJKXPsUGDRrdE4iK6jTs/meCPspfbqElc1axQPNvD861ELNiggEKqzzRIVa9DB309geHJ5dOSgW9/onlTK/qo4Hufzs+JyGbloxMAdWRDCJHSkpNYYBqDBcAZVKmPhkUWjSmUX05mDDo6Q/d5A55MyWDqmWWqdnWY+aYGKjSzokytf+JxUEfSlMJX69Kf5Sc4EsEjdVSfQ8HJecVJtbKEEFzFdBujCn1PfkWDyKoUkqdchicnOGp/Y2iot0E9ypxcMAbVUm0GLJqVLJ+yKWcRNBI4WdQPxVUpiMmHvW1r6NjPFjB74OISGRQ+SyDqVRcoih21CqwyAM9SVv3zpSgJT3vXcheL209mXMY6yL5SmHWk3TPoXlXkZ1OtGsGKKC+nK8WZbN97knuTgXFpUs7MwFvkxi1rBmRy6Si3oVBAz3I5cKsmpYQqmhF5tTjskzs3lptfjJ1Z2TLiQm6q8HzCZWr8SWROG3WVByGSwfc+dsDJPgoixgVkQzQEHj2+fwZ4F9FiFG0zfLmAatOP2vDgfXfzFpYpn8UdPOJSShjBm1P7Hta2B5niOeRdM8GJNmTc0cPx4cvnrDnEP1wV/HnOfEGXrBBdIeiFQaL1mFwb2fihm/E1pjNEvqWL2aH0VxjANB2gxH4qSc1UPB4CvxNi3/fkUDk7sRP22Fd/8Z3XeNCoEZfJBb64N0XaDMn7I0zzE1SUo4U6O5YM7vf5tys0rBIkVULXXghGAZPGN3Pv6SMsRzjQvCSK9F4vZ9Sgo3oKXBdxfVJedgRvtpSPAMiJkaZ7Uwo3P7ICN2P7FT8khtAqkaQFFtU0zoL3qhyvFnmFrNIAFfaAkBb5VmxuF8bV5yI8EpBU+HFLeFFBrsrDgbaWm75JUVuK5ReRBIXlgqul2x6NodeZgoF7X7P30fR3pe6ivY4PCtxi7EE6N/onwH9D7u/bvll51igAAAAAElFTkSuQmCC;" parent="p784MecrXyW4b-BCH8He-1" vertex="1">
                    <mxGeometry x="139.19" y="414" width="90.81" height="80" as="geometry"/>
                </mxCell>
                <mxCell id="p784MecrXyW4b-BCH8He-10" value="App Password&lt;div&gt;&amp;lt;&amp;lt;S3&amp;gt;&amp;gt;&lt;/div&gt;" style="sketch=0;outlineConnect=0;fontColor=#232F3E;gradientColor=none;fillColor=#7AA116;strokeColor=none;dashed=0;verticalLabelPosition=bottom;verticalAlign=top;align=center;html=1;fontSize=12;fontStyle=0;aspect=fixed;pointerEvents=1;shape=mxgraph.aws4.bucket;" parent="p784MecrXyW4b-BCH8He-1" vertex="1">
                    <mxGeometry x="940" y="414" width="75" height="78" as="geometry"/>
                </mxCell>
                <mxCell id="p784MecrXyW4b-BCH8He-11" style="edgeStyle=orthogonalEdgeStyle;rounded=0;orthogonalLoop=1;jettySize=auto;html=1;" parent="p784MecrXyW4b-BCH8He-1" source="p784MecrXyW4b-BCH8He-12" target="p784MecrXyW4b-BCH8He-16" edge="1">
                    <mxGeometry relative="1" as="geometry"/>
                </mxCell>
                <mxCell id="p784MecrXyW4b-BCH8He-12" value="&lt;div&gt;cron&lt;/div&gt;&amp;lt;&amp;lt;Event Bridge Rules&amp;gt;&amp;gt;" style="sketch=0;outlineConnect=0;fontColor=#232F3E;gradientColor=none;fillColor=#E7157B;strokeColor=none;dashed=0;verticalLabelPosition=bottom;verticalAlign=top;align=center;html=1;fontSize=12;fontStyle=0;aspect=fixed;pointerEvents=1;shape=mxgraph.aws4.event_time_based;" parent="p784MecrXyW4b-BCH8He-1" vertex="1">
                    <mxGeometry x="370" y="90" width="78" height="78" as="geometry"/>
                </mxCell>
                <mxCell id="p784MecrXyW4b-BCH8He-13" value="" style="rounded=0;orthogonalLoop=1;jettySize=auto;html=1;exitX=0;exitY=0.5;exitDx=0;exitDy=0;exitPerimeter=0;" parent="p784MecrXyW4b-BCH8He-1" source="p784MecrXyW4b-BCH8He-4" target="p784MecrXyW4b-BCH8He-9" edge="1">
                    <mxGeometry relative="1" as="geometry">
                        <mxPoint x="370" y="579" as="sourcePoint"/>
                    </mxGeometry>
                </mxCell>
                <mxCell id="p784MecrXyW4b-BCH8He-14" value="Get &quot;signout&quot; message in the DM" style="edgeLabel;html=1;align=center;verticalAlign=middle;resizable=0;points=[];" parent="p784MecrXyW4b-BCH8He-13" vertex="1" connectable="0">
                    <mxGeometry x="-0.1558" relative="1" as="geometry">
                        <mxPoint as="offset"/>
                    </mxGeometry>
                </mxCell>
                <mxCell id="p784MecrXyW4b-BCH8He-15" value="execute task" style="rounded=0;orthogonalLoop=1;jettySize=auto;html=1;entryX=0;entryY=0.5;entryDx=0;entryDy=0;" parent="p784MecrXyW4b-BCH8He-1" source="p784MecrXyW4b-BCH8He-16" target="p784MecrXyW4b-BCH8He-6" edge="1">
                    <mxGeometry relative="1" as="geometry"/>
                </mxCell>
                <mxCell id="p784MecrXyW4b-BCH8He-16" value="executor" style="sketch=0;points=[[0,0,0],[0.25,0,0],[0.5,0,0],[0.75,0,0],[1,0,0],[0,1,0],[0.25,1,0],[0.5,1,0],[0.75,1,0],[1,1,0],[0,0.25,0],[0,0.5,0],[0,0.75,0],[1,0.25,0],[1,0.5,0],[1,0.75,0]];outlineConnect=0;fontColor=#232F3E;fillColor=#ED7100;strokeColor=#ffffff;dashed=0;verticalLabelPosition=bottom;verticalAlign=top;align=center;html=1;fontSize=12;fontStyle=0;aspect=fixed;shape=mxgraph.aws4.resourceIcon;resIcon=mxgraph.aws4.lambda;" parent="p784MecrXyW4b-BCH8He-1" vertex="1">
                    <mxGeometry x="370" y="290" width="78" height="78" as="geometry"/>
                </mxCell>
                <mxCell id="p784MecrXyW4b-BCH8He-17" style="edgeStyle=orthogonalEdgeStyle;rounded=0;orthogonalLoop=1;jettySize=auto;html=1;" parent="p784MecrXyW4b-BCH8He-1" source="p784MecrXyW4b-BCH8He-4" target="p784MecrXyW4b-BCH8He-10" edge="1">
                    <mxGeometry relative="1" as="geometry"/>
                </mxCell>
                <mxCell id="p784MecrXyW4b-BCH8He-18" value="Remove App Password file&lt;div&gt;&lt;div&gt;named with user DID&lt;/div&gt;&lt;/div&gt;" style="edgeLabel;html=1;align=center;verticalAlign=middle;resizable=0;points=[];" parent="p784MecrXyW4b-BCH8He-17" vertex="1" connectable="0">
                    <mxGeometry x="-0.0802" y="-1" relative="1" as="geometry">
                        <mxPoint as="offset"/>
                    </mxGeometry>
                </mxCell>
                <mxCell id="p784MecrXyW4b-BCH8He-19" value="A flow to delete user registration information by having the user send a sign-out command via DM." style="text;html=1;align=center;verticalAlign=middle;resizable=0;points=[];autosize=1;strokeColor=none;fillColor=none;" parent="p784MecrXyW4b-BCH8He-1" vertex="1">
                    <mxGeometry x="30" y="18" width="540" height="30" as="geometry"/>
                </mxCell>
                <mxCell id="p784MecrXyW4b-BCH8He-20" value="Send signout succeeded message&lt;div&gt;via&amp;nbsp;&lt;span style=&quot;background-color: light-dark(#ffffff, var(--ge-dark-color, #121212)); color: light-dark(rgb(0, 0, 0), rgb(255, 255, 255));&quot;&gt;DM from Bot Account&lt;/span&gt;&lt;/div&gt;" style="rounded=0;orthogonalLoop=1;jettySize=auto;html=1;" parent="p784MecrXyW4b-BCH8He-1" source="p784MecrXyW4b-BCH8He-7" target="p784MecrXyW4b-BCH8He-8" edge="1">
                    <mxGeometry relative="1" as="geometry"/>
                </mxCell>
                <mxCell id="p784MecrXyW4b-BCH8He-21" style="rounded=0;orthogonalLoop=1;jettySize=auto;html=1;" parent="p784MecrXyW4b-BCH8He-1" source="p784MecrXyW4b-BCH8He-8" target="p784MecrXyW4b-BCH8He-9" edge="1">
                    <mxGeometry relative="1" as="geometry"/>
                </mxCell>
                <mxCell id="p784MecrXyW4b-BCH8He-22" value="Send &quot;signout&quot; via DM" style="edgeLabel;html=1;align=center;verticalAlign=middle;resizable=0;points=[];" parent="p784MecrXyW4b-BCH8He-21" vertex="1" connectable="0">
                    <mxGeometry x="0.2065" y="-2" relative="1" as="geometry">
                        <mxPoint x="13" y="31" as="offset"/>
                    </mxGeometry>
                </mxCell>
            </root>
        </mxGraphModel>
    </diagram>
    <diagram id="Ht1M8jgEwFfnCIfOTk4-" name="watermarking">
        <mxGraphModel dx="1141" dy="657" grid="1" gridSize="10" guides="1" tooltips="1" connect="1" arrows="1" fold="1" page="1" pageScale="1" pageWidth="1169" pageHeight="827" math="0" shadow="0">
            <root>
                <mxCell id="0"/>
                <mxCell id="1" parent="0"/>
                <mxCell id="vJO4XN5ZELtwGPmjyT9C-6" value="&lt;div&gt;Watermarking Flow&lt;/div&gt;&amp;lt;&amp;lt;AWS Step Functions workflow&amp;gt;&amp;gt;" style="points=[[0,0],[0.25,0],[0.5,0],[0.75,0],[1,0],[1,0.25],[1,0.5],[1,0.75],[1,1],[0.75,1],[0.5,1],[0.25,1],[0,1],[0,0.75],[0,0.5],[0,0.25]];outlineConnect=0;gradientColor=none;html=1;whiteSpace=wrap;fontSize=12;fontStyle=0;container=1;pointerEvents=0;collapsible=0;recursiveResize=0;shape=mxgraph.aws4.group;grIcon=mxgraph.aws4.group_aws_step_functions_workflow;strokeColor=#CD2264;fillColor=none;verticalAlign=top;align=left;spacingLeft=30;fontColor=#CD2264;dashed=0;" parent="1" vertex="1">
                    <mxGeometry x="530" y="279" width="250" height="520" as="geometry"/>
                </mxCell>
                <mxCell id="vJO4XN5ZELtwGPmjyT9C-28" style="edgeStyle=orthogonalEdgeStyle;rounded=0;orthogonalLoop=1;jettySize=auto;html=1;" parent="vJO4XN5ZELtwGPmjyT9C-6" source="vJO4XN5ZELtwGPmjyT9C-5" target="vJO4XN5ZELtwGPmjyT9C-27" edge="1">
                    <mxGeometry relative="1" as="geometry"/>
                </mxCell>
                <mxCell id="vJO4XN5ZELtwGPmjyT9C-5" value="getter" style="sketch=0;points=[[0,0,0],[0.25,0,0],[0.5,0,0],[0.75,0,0],[1,0,0],[0,1,0],[0.25,1,0],[0.5,1,0],[0.75,1,0],[1,1,0],[0,0.25,0],[0,0.5,0],[0,0.75,0],[1,0.25,0],[1,0.5,0],[1,0.75,0]];outlineConnect=0;fontColor=#232F3E;fillColor=#ED7100;strokeColor=#ffffff;dashed=0;verticalLabelPosition=bottom;verticalAlign=top;align=center;html=1;fontSize=12;fontStyle=0;aspect=fixed;shape=mxgraph.aws4.resourceIcon;resIcon=mxgraph.aws4.lambda;" parent="vJO4XN5ZELtwGPmjyT9C-6" vertex="1">
                    <mxGeometry x="75" y="135" width="78" height="78" as="geometry"/>
                </mxCell>
                <mxCell id="vJO4XN5ZELtwGPmjyT9C-25" style="edgeStyle=orthogonalEdgeStyle;rounded=0;orthogonalLoop=1;jettySize=auto;html=1;" parent="vJO4XN5ZELtwGPmjyT9C-6" source="vJO4XN5ZELtwGPmjyT9C-24" target="vJO4XN5ZELtwGPmjyT9C-5" edge="1">
                    <mxGeometry relative="1" as="geometry"/>
                </mxCell>
                <mxCell id="vJO4XN5ZELtwGPmjyT9C-24" value="" style="ellipse;fillColor=strokeColor;html=1;" parent="vJO4XN5ZELtwGPmjyT9C-6" vertex="1">
                    <mxGeometry x="99" y="61" width="30" height="30" as="geometry"/>
                </mxCell>
                <mxCell id="vJO4XN5ZELtwGPmjyT9C-32" style="edgeStyle=orthogonalEdgeStyle;rounded=0;orthogonalLoop=1;jettySize=auto;html=1;" parent="vJO4XN5ZELtwGPmjyT9C-6" source="vJO4XN5ZELtwGPmjyT9C-27" target="vJO4XN5ZELtwGPmjyT9C-31" edge="1">
                    <mxGeometry relative="1" as="geometry"/>
                </mxCell>
                <mxCell id="vJO4XN5ZELtwGPmjyT9C-27" value="watermarker" style="sketch=0;points=[[0,0,0],[0.25,0,0],[0.5,0,0],[0.75,0,0],[1,0,0],[0,1,0],[0.25,1,0],[0.5,1,0],[0.75,1,0],[1,1,0],[0,0.25,0],[0,0.5,0],[0,0.75,0],[1,0.25,0],[1,0.5,0],[1,0.75,0]];outlineConnect=0;fontColor=#232F3E;fillColor=#ED7100;strokeColor=#ffffff;dashed=0;verticalLabelPosition=bottom;verticalAlign=top;align=center;html=1;fontSize=12;fontStyle=0;aspect=fixed;shape=mxgraph.aws4.resourceIcon;resIcon=mxgraph.aws4.lambda;" parent="vJO4XN5ZELtwGPmjyT9C-6" vertex="1">
                    <mxGeometry x="75" y="261" width="78" height="78" as="geometry"/>
                </mxCell>
                <mxCell id="vJO4XN5ZELtwGPmjyT9C-31" value="poster" style="sketch=0;points=[[0,0,0],[0.25,0,0],[0.5,0,0],[0.75,0,0],[1,0,0],[0,1,0],[0.25,1,0],[0.5,1,0],[0.75,1,0],[1,1,0],[0,0.25,0],[0,0.5,0],[0,0.75,0],[1,0.25,0],[1,0.5,0],[1,0.75,0]];outlineConnect=0;fontColor=#232F3E;fillColor=#ED7100;strokeColor=#ffffff;dashed=0;verticalLabelPosition=bottom;verticalAlign=top;align=center;html=1;fontSize=12;fontStyle=0;aspect=fixed;shape=mxgraph.aws4.resourceIcon;resIcon=mxgraph.aws4.lambda;" parent="vJO4XN5ZELtwGPmjyT9C-6" vertex="1">
                    <mxGeometry x="75" y="391" width="78" height="78" as="geometry"/>
                </mxCell>
                <mxCell id="vJO4XN5ZELtwGPmjyT9C-16" style="edgeStyle=orthogonalEdgeStyle;rounded=0;orthogonalLoop=1;jettySize=auto;html=1;" parent="1" source="vJO4XN5ZELtwGPmjyT9C-1" target="vJO4XN5ZELtwGPmjyT9C-9" edge="1">
                    <mxGeometry relative="1" as="geometry"/>
                </mxCell>
                <mxCell id="vJO4XN5ZELtwGPmjyT9C-17" value="Send Post with DM" style="edgeLabel;html=1;align=center;verticalAlign=middle;resizable=0;points=[];" parent="vJO4XN5ZELtwGPmjyT9C-16" connectable="0" vertex="1">
                    <mxGeometry x="0.2065" y="-2" relative="1" as="geometry">
                        <mxPoint as="offset"/>
                    </mxGeometry>
                </mxCell>
                <mxCell id="vJO4XN5ZELtwGPmjyT9C-1" value="Bluesky&#xa;&lt;&lt;BotAccount&gt;&gt;" style="shape=image;verticalLabelPosition=bottom;labelBackgroundColor=default;verticalAlign=top;aspect=fixed;imageAspect=0;image=data:image/png,iVBORw0KGgoAAAANSUhEUgAAAKgAAACUCAMAAAAwLZJQAAAAbFBMVEURhf7///8Agv4Afv4AgP4AfP4Aev4Ad/4Adf76/P/p8f/v9f/o7//U5P/3+v/0+P/h6/++1v+hxP5Ml/7H3P+Svf5VnP6sy/4riP59r/49kf660v+awP5inv4rjP7a5/8Acf5wqf5spP6Otv4j4A5NAAAIrElEQVR4nNWc19qyOhBGMYQuSlFAVBS5/3vcdAHTJol++38PfSQuSZtMibH7R2T8NYColqAHf/8IIz84/BnNBBL4UfjY+0uQN2h0uyPXdVy7qm9x8Hu6SUF8qyu7BXHR/RbNH0+gXlKYyOiFsGlUdfg3mGFdGSaeSMwi8dagh7tjrITdKo+ozX1JUV65eM3h3A8r0ItlbIWs6uzRG9Uv71xZ6APDvixBE/vjC51M+/azwRrcbJMIYSdv0CP5K9230vw3nHlKflfd6zrOoOfPjp8HAL7/YKhGd/zZ6ZOs8wR6KKlf6v4Q/vpLzTFmEZTeCHpifatDfX11pAYv6sgbdRpBE3rPD8LW6XucJ4v5OltZyQDqXXjfbEfq7VucN8bonN7TZQA9ZtyvttP/dfwG5vFFneyL15Qde9CgEgA1zNTXz+mnvOHZg1ZBD+pze74XLrRv/2Eh+NN+D7p3+F/t/5hx1ct5NUS6spWzH0Bdsa+3xoxW0qspyGm4QNB2odA4+W+8RfETVLDre9JEFyd38V5o7HpfZOZNss96OM8Cy9Isc5hMPuARXaQgTsPwAevo++9pGKc3SCfO62hQgkANU/mdnkGcBioD8S10KVvR7sth/T5voYcXENQwleZ+AnufLejrMFhPtdhGtnjSjOU5Y+F1fhKuvcEe5Zt5n89KG6gniR8bzTzo2O6ECsmTVFRA3+c4e3sLHw7akkp5qA4SnMOU6EBzCVADZxKW9DGDd3wLmk+gMk8b+AUHfcn90gQayzzdmgoNlLMBmD9LxSPoqZB7HrpIxTJDrFUxHZcfkqCGDTqchMAN6Q36GEH3lWQLqNqLc+5hts9C/a90oAHTpcMSvgtP/eNdaiJ16mySHtQDmk8LTd5Lvi6yHd8aT5PvaZdKgxq24HnvKs1poHQ3gULtvFUzQrv+SeUXshkUbD4thCsR0ErlF+oZtFFoxjAFdiiuY5EJ2sygOeDoSmiIa0YnKi9iPKL3oAoj3ejM6Aeb8wE2lVey4xk0lNyDJ9KKuZoepVf6QW44gwKcOkRhpnmiNAOMwaEzgnpPtaYMh3EuzdW6yzCe3htUaYx2MqnhiEBlwvey36A7xVHUDtM7JRrp3ZWbHhbqAVRlaxpEW6NkzmMb0GwBqrI1jbKJLn5faYXuNWxMI2ij/L9b04HQ+Z6CuTPJbBagEK8qTaTOV9uSBlmL6PIuVp72rcyPg0mo3lHTxjSCnnS0iNMtaKrhhU7eowE0lD3erbR18qnP+E5jeGsAjaRPTUttHFIybiaCymgB6muYncbWNFUyQmehMbQ5gKrvH4OeC5dE/NTS5LTnjVk6YKczpdV0NviOejrJQGMvjaCqptikd2gPEJhjajIhR1ApzyNJ5riTgqJszAbzFehJ0/+fnZFyDkaCpiyRETRQtW5nDeuzhKeeIidYge507KG9cBdrOWh7oYa9W4NqmvatnHaJirV10DTpZ1Dlk8276WK307MndXKuG9BIy27fy8y1rSHtTh9tQOHhO6pQKe/G3KoP2q1Ad1dtjYumtAg1NXs13znOyifRLwi9XYVv0ETbdNInJyGAHvSNLF1C5YEAKhnA+6aWmavLggF924kejSf6T1CfnyH5SyEcUEB38f/qleJVBHNd1EJJc/8TbVJsNtU38mEr3dqG2rZlQo0uC1pR1taJvQX1zopucj1yP6o/PguvroJpsl8ULj4Dl4QKsQe9GuI3slNCPIhUynZI2JUG3xXGN1I0iFxzF12QPtsXJBNdyBlVtOLAR+2oxdtkhEynpkUBGVWMyb2wfzgEsF3cGVFVVrmlF+Y1ftoYffnVIoTtJ67zkFWQxq0L9fMmK8uq6A9/RZWWVVUpHgSLtokyHVopiqossybnlk2IFbAGUXhqFYZ5U2eyOT0LVVnd5OHQZiRWgwSotPXiuiyQnnHQNlOUdQwoPhQFjfKX42geq8h2XsI1nWKg4avklkdJCVvli5OWIA4aXAv3i/MeucVVYJjyQZPU/vbyZKf87G4e6Kn8xQaFzJKXPsUGDRrdE4iK6jTs/meCPspfbqElc1axQPNvD861ELNiggEKqzzRIVa9DB309geHJ5dOSgW9/onlTK/qo4Hufzs+JyGbloxMAdWRDCJHSkpNYYBqDBcAZVKmPhkUWjSmUX05mDDo6Q/d5A55MyWDqmWWqdnWY+aYGKjSzokytf+JxUEfSlMJX69Kf5Sc4EsEjdVSfQ8HJecVJtbKEEFzFdBujCn1PfkWDyKoUkqdchicnOGp/Y2iot0E9ypxcMAbVUm0GLJqVLJ+yKWcRNBI4WdQPxVUpiMmHvW1r6NjPFjB74OISGRQ+SyDqVRcoih21CqwyAM9SVv3zpSgJT3vXcheL209mXMY6yL5SmHWk3TPoXlXkZ1OtGsGKKC+nK8WZbN97knuTgXFpUs7MwFvkxi1rBmRy6Si3oVBAz3I5cKsmpYQqmhF5tTjskzs3lptfjJ1Z2TLiQm6q8HzCZWr8SWROG3WVByGSwfc+dsDJPgoixgVkQzQEHj2+fwZ4F9FiFG0zfLmAatOP2vDgfXfzFpYpn8UdPOJSShjBm1P7Hta2B5niOeRdM8GJNmTc0cPx4cvnrDnEP1wV/HnOfEGXrBBdIeiFQaL1mFwb2fihm/E1pjNEvqWL2aH0VxjANB2gxH4qSc1UPB4CvxNi3/fkUDk7sRP22Fd/8Z3XeNCoEZfJBb64N0XaDMn7I0zzE1SUo4U6O5YM7vf5tys0rBIkVULXXghGAZPGN3Pv6SMsRzjQvCSK9F4vZ9Sgo3oKXBdxfVJedgRvtpSPAMiJkaZ7Uwo3P7ICN2P7FT8khtAqkaQFFtU0zoL3qhyvFnmFrNIAFfaAkBb5VmxuF8bV5yI8EpBU+HFLeFFBrsrDgbaWm75JUVuK5ReRBIXlgqul2x6NodeZgoF7X7P30fR3pe6ivY4PCtxi7EE6N/onwH9D7u/bvll51igAAAAAElFTkSuQmCC;" parent="1" vertex="1">
                    <mxGeometry x="109.19" y="300" width="90.81" height="80" as="geometry"/>
                </mxCell>
                <mxCell id="vJO4XN5ZELtwGPmjyT9C-9" value="Bluesky&#xa;&lt;&lt;UserAccount&gt;&gt;" style="shape=image;verticalLabelPosition=bottom;labelBackgroundColor=default;verticalAlign=top;aspect=fixed;imageAspect=0;image=data:image/png,iVBORw0KGgoAAAANSUhEUgAAAKgAAACUCAMAAAAwLZJQAAAAbFBMVEURhf7///8Agv4Afv4AgP4AfP4Aev4Ad/4Adf76/P/p8f/v9f/o7//U5P/3+v/0+P/h6/++1v+hxP5Ml/7H3P+Svf5VnP6sy/4riP59r/49kf660v+awP5inv4rjP7a5/8Acf5wqf5spP6Otv4j4A5NAAAIrElEQVR4nNWc19qyOhBGMYQuSlFAVBS5/3vcdAHTJol++38PfSQuSZtMibH7R2T8NYColqAHf/8IIz84/BnNBBL4UfjY+0uQN2h0uyPXdVy7qm9x8Hu6SUF8qyu7BXHR/RbNH0+gXlKYyOiFsGlUdfg3mGFdGSaeSMwi8dagh7tjrITdKo+ozX1JUV65eM3h3A8r0ItlbIWs6uzRG9Uv71xZ6APDvixBE/vjC51M+/azwRrcbJMIYSdv0CP5K9230vw3nHlKflfd6zrOoOfPjp8HAL7/YKhGd/zZ6ZOs8wR6KKlf6v4Q/vpLzTFmEZTeCHpifatDfX11pAYv6sgbdRpBE3rPD8LW6XucJ4v5OltZyQDqXXjfbEfq7VucN8bonN7TZQA9ZtyvttP/dfwG5vFFneyL15Qde9CgEgA1zNTXz+mnvOHZg1ZBD+pze74XLrRv/2Eh+NN+D7p3+F/t/5hx1ct5NUS6spWzH0Bdsa+3xoxW0qspyGm4QNB2odA4+W+8RfETVLDre9JEFyd38V5o7HpfZOZNss96OM8Cy9Isc5hMPuARXaQgTsPwAevo++9pGKc3SCfO62hQgkANU/mdnkGcBioD8S10KVvR7sth/T5voYcXENQwleZ+AnufLejrMFhPtdhGtnjSjOU5Y+F1fhKuvcEe5Zt5n89KG6gniR8bzTzo2O6ECsmTVFRA3+c4e3sLHw7akkp5qA4SnMOU6EBzCVADZxKW9DGDd3wLmk+gMk8b+AUHfcn90gQayzzdmgoNlLMBmD9LxSPoqZB7HrpIxTJDrFUxHZcfkqCGDTqchMAN6Q36GEH3lWQLqNqLc+5hts9C/a90oAHTpcMSvgtP/eNdaiJ16mySHtQDmk8LTd5Lvi6yHd8aT5PvaZdKgxq24HnvKs1poHQ3gULtvFUzQrv+SeUXshkUbD4thCsR0ErlF+oZtFFoxjAFdiiuY5EJ2sygOeDoSmiIa0YnKi9iPKL3oAoj3ejM6Aeb8wE2lVey4xk0lNyDJ9KKuZoepVf6QW44gwKcOkRhpnmiNAOMwaEzgnpPtaYMh3EuzdW6yzCe3htUaYx2MqnhiEBlwvey36A7xVHUDtM7JRrp3ZWbHhbqAVRlaxpEW6NkzmMb0GwBqrI1jbKJLn5faYXuNWxMI2ij/L9b04HQ+Z6CuTPJbBagEK8qTaTOV9uSBlmL6PIuVp72rcyPg0mo3lHTxjSCnnS0iNMtaKrhhU7eowE0lD3erbR18qnP+E5jeGsAjaRPTUttHFIybiaCymgB6muYncbWNFUyQmehMbQ5gKrvH4OeC5dE/NTS5LTnjVk6YKczpdV0NviOejrJQGMvjaCqptikd2gPEJhjajIhR1ApzyNJ5riTgqJszAbzFehJ0/+fnZFyDkaCpiyRETRQtW5nDeuzhKeeIidYge507KG9cBdrOWh7oYa9W4NqmvatnHaJirV10DTpZ1Dlk8276WK307MndXKuG9BIy27fy8y1rSHtTh9tQOHhO6pQKe/G3KoP2q1Ad1dtjYumtAg1NXs13znOyifRLwi9XYVv0ETbdNInJyGAHvSNLF1C5YEAKhnA+6aWmavLggF924kejSf6T1CfnyH5SyEcUEB38f/qleJVBHNd1EJJc/8TbVJsNtU38mEr3dqG2rZlQo0uC1pR1taJvQX1zopucj1yP6o/PguvroJpsl8ULj4Dl4QKsQe9GuI3slNCPIhUynZI2JUG3xXGN1I0iFxzF12QPtsXJBNdyBlVtOLAR+2oxdtkhEynpkUBGVWMyb2wfzgEsF3cGVFVVrmlF+Y1ftoYffnVIoTtJ67zkFWQxq0L9fMmK8uq6A9/RZWWVVUpHgSLtokyHVopiqossybnlk2IFbAGUXhqFYZ5U2eyOT0LVVnd5OHQZiRWgwSotPXiuiyQnnHQNlOUdQwoPhQFjfKX42geq8h2XsI1nWKg4avklkdJCVvli5OWIA4aXAv3i/MeucVVYJjyQZPU/vbyZKf87G4e6Kn8xQaFzJKXPsUGDRrdE4iK6jTs/meCPspfbqElc1axQPNvD861ELNiggEKqzzRIVa9DB309geHJ5dOSgW9/onlTK/qo4Hufzs+JyGbloxMAdWRDCJHSkpNYYBqDBcAZVKmPhkUWjSmUX05mDDo6Q/d5A55MyWDqmWWqdnWY+aYGKjSzokytf+JxUEfSlMJX69Kf5Sc4EsEjdVSfQ8HJecVJtbKEEFzFdBujCn1PfkWDyKoUkqdchicnOGp/Y2iot0E9ypxcMAbVUm0GLJqVLJ+yKWcRNBI4WdQPxVUpiMmHvW1r6NjPFjB74OISGRQ+SyDqVRcoih21CqwyAM9SVv3zpSgJT3vXcheL209mXMY6yL5SmHWk3TPoXlXkZ1OtGsGKKC+nK8WZbN97knuTgXFpUs7MwFvkxi1rBmRy6Si3oVBAz3I5cKsmpYQqmhF5tTjskzs3lptfjJ1Z2TLiQm6q8HzCZWr8SWROG3WVByGSwfc+dsDJPgoixgVkQzQEHj2+fwZ4F9FiFG0zfLmAatOP2vDgfXfzFpYpn8UdPOJSShjBm1P7Hta2B5niOeRdM8GJNmTc0cPx4cvnrDnEP1wV/HnOfEGXrBBdIeiFQaL1mFwb2fihm/E1pjNEvqWL2aH0VxjANB2gxH4qSc1UPB4CvxNi3/fkUDk7sRP22Fd/8Z3XeNCoEZfJBb64N0XaDMn7I0zzE1SUo4U6O5YM7vf5tys0rBIkVULXXghGAZPGN3Pv6SMsRzjQvCSK9F4vZ9Sgo3oKXBdxfVJedgRvtpSPAMiJkaZ7Uwo3P7ICN2P7FT8khtAqkaQFFtU0zoL3qhyvFnmFrNIAFfaAkBb5VmxuF8bV5yI8EpBU+HFLeFFBrsrDgbaWm75JUVuK5ReRBIXlgqul2x6NodeZgoF7X7P30fR3pe6ivY4PCtxi7EE6N/onwH9D7u/bvll51igAAAAAElFTkSuQmCC;" parent="1" vertex="1">
                    <mxGeometry x="109.19" y="540" width="90.81" height="80" as="geometry"/>
                </mxCell>
                <mxCell id="vJO4XN5ZELtwGPmjyT9C-12" value="Original Image&lt;div&gt;&amp;lt;&amp;lt;S3&amp;gt;&amp;gt;&lt;/div&gt;" style="sketch=0;outlineConnect=0;fontColor=#232F3E;gradientColor=none;fillColor=#7AA116;strokeColor=none;dashed=0;verticalLabelPosition=bottom;verticalAlign=top;align=center;html=1;fontSize=12;fontStyle=0;aspect=fixed;pointerEvents=1;shape=mxgraph.aws4.bucket;" parent="1" vertex="1">
                    <mxGeometry x="870" y="414" width="75" height="78" as="geometry"/>
                </mxCell>
                <mxCell id="vJO4XN5ZELtwGPmjyT9C-13" value="Transformed Image&lt;div&gt;&amp;lt;&amp;lt;S3&amp;gt;&amp;gt;&lt;/div&gt;" style="sketch=0;outlineConnect=0;fontColor=#232F3E;gradientColor=none;fillColor=#7AA116;strokeColor=none;dashed=0;verticalLabelPosition=bottom;verticalAlign=top;align=center;html=1;fontSize=12;fontStyle=0;aspect=fixed;pointerEvents=1;shape=mxgraph.aws4.bucket;" parent="1" vertex="1">
                    <mxGeometry x="870" y="542" width="75" height="78" as="geometry"/>
                </mxCell>
                <mxCell id="vJO4XN5ZELtwGPmjyT9C-20" style="edgeStyle=orthogonalEdgeStyle;rounded=0;orthogonalLoop=1;jettySize=auto;html=1;" parent="1" source="vJO4XN5ZELtwGPmjyT9C-18" target="vJO4XN5ZELtwGPmjyT9C-22" edge="1">
                    <mxGeometry relative="1" as="geometry"/>
                </mxCell>
                <mxCell id="vJO4XN5ZELtwGPmjyT9C-18" value="&lt;div&gt;cron&lt;/div&gt;&amp;lt;&amp;lt;Event Bridge Rules&amp;gt;&amp;gt;" style="sketch=0;outlineConnect=0;fontColor=#232F3E;gradientColor=none;fillColor=#E7157B;strokeColor=none;dashed=0;verticalLabelPosition=bottom;verticalAlign=top;align=center;html=1;fontSize=12;fontStyle=0;aspect=fixed;pointerEvents=1;shape=mxgraph.aws4.event_time_based;" parent="1" vertex="1">
                    <mxGeometry x="370" y="90" width="78" height="78" as="geometry"/>
                </mxCell>
                <mxCell id="vJO4XN5ZELtwGPmjyT9C-21" value="" style="rounded=0;orthogonalLoop=1;jettySize=auto;html=1;exitX=0;exitY=0.5;exitDx=0;exitDy=0;exitPerimeter=0;" parent="1" source="vJO4XN5ZELtwGPmjyT9C-5" target="vJO4XN5ZELtwGPmjyT9C-9" edge="1">
                    <mxGeometry relative="1" as="geometry">
                        <mxPoint x="370" y="579" as="sourcePoint"/>
                    </mxGeometry>
                </mxCell>
                <mxCell id="vJO4XN5ZELtwGPmjyT9C-29" value="Get the Image in DM" style="edgeLabel;html=1;align=center;verticalAlign=middle;resizable=0;points=[];" parent="vJO4XN5ZELtwGPmjyT9C-21" connectable="0" vertex="1">
                    <mxGeometry x="-0.1558" relative="1" as="geometry">
                        <mxPoint as="offset"/>
                    </mxGeometry>
                </mxCell>
                <mxCell id="vJO4XN5ZELtwGPmjyT9C-23" value="execute task" style="rounded=0;orthogonalLoop=1;jettySize=auto;html=1;entryX=0;entryY=0.5;entryDx=0;entryDy=0;" parent="1" source="vJO4XN5ZELtwGPmjyT9C-22" target="vJO4XN5ZELtwGPmjyT9C-24" edge="1">
                    <mxGeometry relative="1" as="geometry"/>
                </mxCell>
                <mxCell id="vJO4XN5ZELtwGPmjyT9C-22" value="executor" style="sketch=0;points=[[0,0,0],[0.25,0,0],[0.5,0,0],[0.75,0,0],[1,0,0],[0,1,0],[0.25,1,0],[0.5,1,0],[0.75,1,0],[1,1,0],[0,0.25,0],[0,0.5,0],[0,0.75,0],[1,0.25,0],[1,0.5,0],[1,0.75,0]];outlineConnect=0;fontColor=#232F3E;fillColor=#ED7100;strokeColor=#ffffff;dashed=0;verticalLabelPosition=bottom;verticalAlign=top;align=center;html=1;fontSize=12;fontStyle=0;aspect=fixed;shape=mxgraph.aws4.resourceIcon;resIcon=mxgraph.aws4.lambda;" parent="1" vertex="1">
                    <mxGeometry x="370" y="290" width="78" height="78" as="geometry"/>
                </mxCell>
                <mxCell id="vJO4XN5ZELtwGPmjyT9C-26" style="edgeStyle=orthogonalEdgeStyle;rounded=0;orthogonalLoop=1;jettySize=auto;html=1;" parent="1" source="vJO4XN5ZELtwGPmjyT9C-5" target="vJO4XN5ZELtwGPmjyT9C-12" edge="1">
                    <mxGeometry relative="1" as="geometry"/>
                </mxCell>
                <mxCell id="vJO4XN5ZELtwGPmjyT9C-30" value="Put Image in DM" style="edgeLabel;html=1;align=center;verticalAlign=middle;resizable=0;points=[];" parent="vJO4XN5ZELtwGPmjyT9C-26" connectable="0" vertex="1">
                    <mxGeometry x="-0.0802" y="-1" relative="1" as="geometry">
                        <mxPoint as="offset"/>
                    </mxGeometry>
                </mxCell>
                <mxCell id="vJO4XN5ZELtwGPmjyT9C-34" value="Overwrite watermarked Image" style="rounded=0;orthogonalLoop=1;jettySize=auto;html=1;" parent="1" source="vJO4XN5ZELtwGPmjyT9C-27" target="vJO4XN5ZELtwGPmjyT9C-13" edge="1">
                    <mxGeometry relative="1" as="geometry"/>
                </mxCell>
                <mxCell id="vJO4XN5ZELtwGPmjyT9C-35" value="Get DM" style="rounded=0;orthogonalLoop=1;jettySize=auto;html=1;" parent="1" source="vJO4XN5ZELtwGPmjyT9C-27" target="vJO4XN5ZELtwGPmjyT9C-12" edge="1">
                    <mxGeometry relative="1" as="geometry"/>
                </mxCell>
                <mxCell id="SoIEUip_XTQUhR2Eo81Y-1" value="App Password&lt;div&gt;&amp;lt;&amp;lt;S3&amp;gt;&amp;gt;&lt;/div&gt;" style="sketch=0;outlineConnect=0;fontColor=#232F3E;gradientColor=none;fillColor=#7AA116;strokeColor=none;dashed=0;verticalLabelPosition=bottom;verticalAlign=top;align=center;html=1;fontSize=12;fontStyle=0;aspect=fixed;pointerEvents=1;shape=mxgraph.aws4.bucket;" parent="1" vertex="1">
                    <mxGeometry x="865" y="670" width="75" height="78" as="geometry"/>
                </mxCell>
                <mxCell id="SoIEUip_XTQUhR2Eo81Y-2" value="Get App Password&lt;div&gt;from user DID&lt;/div&gt;" style="edgeStyle=orthogonalEdgeStyle;rounded=0;orthogonalLoop=1;jettySize=auto;html=1;" parent="1" source="vJO4XN5ZELtwGPmjyT9C-31" target="SoIEUip_XTQUhR2Eo81Y-1" edge="1">
                    <mxGeometry relative="1" as="geometry"/>
                </mxCell>
                <mxCell id="SoIEUip_XTQUhR2Eo81Y-3" style="rounded=0;orthogonalLoop=1;jettySize=auto;html=1;" parent="1" source="vJO4XN5ZELtwGPmjyT9C-31" target="vJO4XN5ZELtwGPmjyT9C-9" edge="1">
                    <mxGeometry relative="1" as="geometry"/>
                </mxCell>
                <mxCell id="M3WYWJvz_hV94d5aAJlj-1" value="re-Post watermarked Image&amp;nbsp;&lt;div&gt;and remove original Post&lt;/div&gt;&lt;div&gt;as User&lt;/div&gt;" style="edgeLabel;html=1;align=center;verticalAlign=middle;resizable=0;points=[];" parent="SoIEUip_XTQUhR2Eo81Y-3" connectable="0" vertex="1">
                    <mxGeometry x="0.1904" relative="1" as="geometry">
                        <mxPoint as="offset"/>
                    </mxGeometry>
                </mxCell>
                <mxCell id="M3WYWJvz_hV94d5aAJlj-3" value="Get DM" style="rounded=0;orthogonalLoop=1;jettySize=auto;html=1;" parent="1" source="vJO4XN5ZELtwGPmjyT9C-31" target="vJO4XN5ZELtwGPmjyT9C-13" edge="1">
                    <mxGeometry relative="1" as="geometry"/>
                </mxCell>
                <mxCell id="p9CMJT7HEESB4G2KDdKc-1" value="TBD... A flow that watermarks the image of a post sent by a user to a DM, reposts it as that user&#39;s post, and deletes the original post." style="text;html=1;align=center;verticalAlign=middle;resizable=0;points=[];autosize=1;strokeColor=none;fillColor=none;" parent="1" vertex="1">
                    <mxGeometry y="25" width="730" height="30" as="geometry"/>
                </mxCell>
            </root>
        </mxGraphModel>
    </diagram>
</mxfile>